<svg width="250.000000" height="24.000000" viewBox="0 0 250 24" fill="none" xmlns="http://www.w3.org/2000/svg" xmlns:xlink="http://www.w3.org/1999/xlink">
	<desc>
			Created with Pixso.
	</desc>
	<defs>
		<clipPath id="clip9_14788">
			<rect id="bxs:star" width="24.000000" height="24.000000" fill="white" fill-opacity="0"/>
		</clipPath>
		<clipPath id="clip9_14790">
			<rect id="bxs:star" width="24.000000" height="24.000000" transform="translate(48.000000 0.000000)" fill="white" fill-opacity="0"/>
		</clipPath>
		<clipPath id="clip9_14792">
			<rect id="bxs:star" width="24.000000" height="24.000000" transform="translate(24.000000 0.000000)" fill="white" fill-opacity="0"/>
		</clipPath>
		<clipPath id="clip9_14794">
			<rect id="bxs:star" width="24.000000" height="24.000000" transform="translate(72.000000 0.000000)" fill="white" fill-opacity="0"/>
		</clipPath>
		<clipPath id="clip9_14796">
			<rect id="bxs:star" width="24.000000" height="24.000000" transform="translate(96.000000 0.000000)" fill="white" fill-opacity="0"/>
		</clipPath>
		<clipPath id="clip9_14799">
			<rect id="icon-park-outline:like" width="24.000000" height="24.000000" transform="translate(194.000000 0.000000)" fill="white" fill-opacity="0"/>
		</clipPath>
		<clipPath id="clip9_14801">
			<rect id="gg:filters" width="24.000000" height="24.000000" transform="translate(226.000000 0.000000)" fill="white" fill-opacity="0"/>
		</clipPath>
	</defs>
	<rect id="bxs:star" width="24.000000" height="24.000000" fill="#FFFFFF" fill-opacity="0"/>
	<g clip-path="url(#clip9_14788)">
		<path id="Vector" d="M21.947 9.17902C21.8843 8.9939 21.7686 8.83118 21.6143 8.71106C21.46 8.59094 21.2739 8.51862 21.0791 8.50299L15.3779 8.04999L12.9111 2.58899C12.8325 2.41315 12.7046 2.26373 12.543 2.15887C12.3816 2.05402 12.1929 1.99817 12.0002 1.99805C11.8076 1.99792 11.6191 2.05359 11.4575 2.15826C11.2957 2.26294 11.1677 2.41223 11.0891 2.58801L8.62207 8.04999L2.92114 8.50299C2.72949 8.51819 2.54639 8.5882 2.39355 8.70477C2.24072 8.82129 2.12476 8.97931 2.05957 9.16003C1.99414 9.34076 1.98242 9.53644 2.02539 9.72369C2.06836 9.91101 2.16431 10.0819 2.302 10.216L6.51514 14.323L5.02515 20.775C4.97974 20.9703 4.99438 21.1747 5.06665 21.3616C5.13892 21.5486 5.26587 21.7095 5.43091 21.8234C5.5957 21.9374 5.79126 21.9991 5.9917 22.0007C6.19214 22.0022 6.38843 21.9434 6.55493 21.832L12 18.202L17.4451 21.832C17.6155 21.9451 17.8162 22.0034 18.0208 21.9988C18.2251 21.9944 18.4231 21.9274 18.5884 21.8069C18.7537 21.6865 18.8779 21.5183 18.9448 21.3251C19.0115 21.1318 19.0176 20.9228 18.9619 20.726L17.1331 14.326L21.6689 10.244C21.9661 9.97601 22.075 9.55804 21.947 9.17902Z" fill="#FFAD31" fill-opacity="1.000000" fill-rule="nonzero"/>
	</g>
	<rect id="bxs:star" width="24.000000" height="24.000000" transform="translate(48.000000 0.000000)" fill="#FFFFFF" fill-opacity="0"/>
	<g clip-path="url(#clip9_14790)">
		<path id="Vector" d="M69.947 9.17902C69.8843 8.9939 69.7686 8.83118 69.6143 8.71106C69.46 8.59094 69.2739 8.51862 69.0791 8.50299L63.3779 8.04999L60.9111 2.58899C60.8325 2.41315 60.7046 2.26373 60.543 2.15887C60.3816 2.05402 60.1929 1.99817 60.0002 1.99805C59.8076 1.99792 59.6191 2.05359 59.4575 2.15826C59.2957 2.26294 59.1677 2.41223 59.0891 2.58801L56.6221 8.04999L50.9211 8.50299C50.7295 8.51819 50.5464 8.5882 50.3936 8.70477C50.2407 8.82129 50.1248 8.97931 50.0596 9.16003C49.9941 9.34076 49.9824 9.53644 50.0254 9.72369C50.0684 9.91101 50.1643 10.0819 50.302 10.216L54.5151 14.323L53.0251 20.775C52.9797 20.9703 52.9944 21.1747 53.0667 21.3616C53.1389 21.5486 53.2659 21.7095 53.4309 21.8234C53.5957 21.9374 53.7913 21.9991 53.9917 22.0007C54.1921 22.0022 54.3884 21.9434 54.5549 21.832L60 18.202L65.4451 21.832C65.6155 21.9451 65.8162 22.0034 66.0208 21.9988C66.2251 21.9944 66.4231 21.9274 66.5884 21.8069C66.7537 21.6865 66.8779 21.5183 66.9448 21.3251C67.0115 21.1318 67.0176 20.9228 66.9619 20.726L65.1331 14.326L69.6689 10.244C69.9661 9.97601 70.075 9.55804 69.947 9.17902Z" fill="#FFAD31" fill-opacity="1.000000" fill-rule="nonzero"/>
	</g>
	<rect id="bxs:star" width="24.000000" height="24.000000" transform="translate(24.000000 0.000000)" fill="#FFFFFF" fill-opacity="0"/>
	<g clip-path="url(#clip9_14792)">
		<path id="Vector" d="M45.947 9.17902C45.8843 8.9939 45.7686 8.83118 45.6143 8.71106C45.46 8.59094 45.2739 8.51862 45.0791 8.50299L39.3779 8.04999L36.9111 2.58899C36.8325 2.41315 36.7046 2.26373 36.543 2.15887C36.3816 2.05402 36.1929 1.99817 36.0002 1.99805C35.8076 1.99792 35.6191 2.05359 35.4575 2.15826C35.2957 2.26294 35.1677 2.41223 35.0891 2.58801L32.6221 8.04999L26.9211 8.50299C26.7295 8.51819 26.5464 8.5882 26.3936 8.70477C26.2407 8.82129 26.1248 8.97931 26.0596 9.16003C25.9941 9.34076 25.9824 9.53644 26.0254 9.72369C26.0684 9.91101 26.1643 10.0819 26.302 10.216L30.5151 14.323L29.0251 20.775C28.9797 20.9703 28.9944 21.1747 29.0667 21.3616C29.1389 21.5486 29.2659 21.7095 29.4309 21.8234C29.5957 21.9374 29.7913 21.9991 29.9917 22.0007C30.1921 22.0022 30.3884 21.9434 30.5549 21.832L36 18.202L41.4451 21.832C41.6155 21.9451 41.8162 22.0034 42.0208 21.9988C42.2251 21.9944 42.4231 21.9274 42.5884 21.8069C42.7537 21.6865 42.8779 21.5183 42.9448 21.3251C43.0115 21.1318 43.0176 20.9228 42.9619 20.726L41.1331 14.326L45.6689 10.244C45.9661 9.97601 46.075 9.55804 45.947 9.17902Z" fill="#FFAD31" fill-opacity="1.000000" fill-rule="nonzero"/>
	</g>
	<rect id="bxs:star" width="24.000000" height="24.000000" transform="translate(72.000000 0.000000)" fill="#FFFFFF" fill-opacity="0"/>
	<g clip-path="url(#clip9_14794)">
		<path id="Vector" d="M93.947 9.17902C93.8843 8.9939 93.7686 8.83118 93.6143 8.71106C93.46 8.59094 93.2739 8.51862 93.0791 8.50299L87.3779 8.04999L84.9111 2.58899C84.8325 2.41315 84.7046 2.26373 84.543 2.15887C84.3816 2.05402 84.1929 1.99817 84.0002 1.99805C83.8076 1.99792 83.6191 2.05359 83.4575 2.15826C83.2957 2.26294 83.1677 2.41223 83.0891 2.58801L80.6221 8.04999L74.9211 8.50299C74.7295 8.51819 74.5464 8.5882 74.3936 8.70477C74.2407 8.82129 74.1248 8.97931 74.0596 9.16003C73.9941 9.34076 73.9824 9.53644 74.0254 9.72369C74.0684 9.91101 74.1643 10.0819 74.302 10.216L78.5151 14.323L77.0251 20.775C76.9797 20.9703 76.9944 21.1747 77.0667 21.3616C77.1389 21.5486 77.2659 21.7095 77.4309 21.8234C77.5957 21.9374 77.7913 21.9991 77.9917 22.0007C78.1921 22.0022 78.3884 21.9434 78.5549 21.832L84 18.202L89.4451 21.832C89.6155 21.9451 89.8162 22.0034 90.0208 21.9988C90.2251 21.9944 90.4231 21.9274 90.5884 21.8069C90.7537 21.6865 90.8779 21.5183 90.9448 21.3251C91.0115 21.1318 91.0176 20.9228 90.9619 20.726L89.1331 14.326L93.6689 10.244C93.9661 9.97601 94.075 9.55804 93.947 9.17902Z" fill="#FFAD31" fill-opacity="1.000000" fill-rule="nonzero"/>
	</g>
	<rect id="bxs:star" width="24.000000" height="24.000000" transform="translate(96.000000 0.000000)" fill="#FFFFFF" fill-opacity="0"/>
	<g clip-path="url(#clip9_14796)">
		<path id="Vector" d="M117.947 9.17902C117.884 8.9939 117.769 8.83118 117.614 8.71106C117.46 8.59094 117.274 8.51862 117.079 8.50299L111.378 8.04999L108.911 2.58899C108.833 2.41315 108.705 2.26373 108.543 2.15887C108.382 2.05402 108.193 1.99817 108 1.99805C107.808 1.99792 107.619 2.05359 107.458 2.15826C107.296 2.26294 107.168 2.41223 107.089 2.58801L104.622 8.04999L98.9211 8.50299C98.7295 8.51819 98.5464 8.5882 98.3936 8.70477C98.2407 8.82129 98.1248 8.97931 98.0596 9.16003C97.9941 9.34076 97.9824 9.53644 98.0254 9.72369C98.0684 9.91101 98.1643 10.0819 98.302 10.216L102.515 14.323L101.025 20.775C100.98 20.9703 100.994 21.1747 101.067 21.3616C101.139 21.5486 101.266 21.7095 101.431 21.8234C101.596 21.9374 101.791 21.9991 101.992 22.0007C102.192 22.0022 102.388 21.9434 102.555 21.832L108 18.202L113.445 21.832C113.615 21.9451 113.816 22.0034 114.021 21.9988C114.225 21.9944 114.423 21.9274 114.588 21.8069C114.754 21.6865 114.878 21.5183 114.945 21.3251C115.011 21.1318 115.018 20.9228 114.962 20.726L113.133 14.326L117.669 10.244C117.966 9.97601 118.075 9.55804 117.947 9.17902Z" fill="#DBDBDB" fill-opacity="1.000000" fill-rule="nonzero"/>
	</g>
	<path id="(14)" d="M129.461 13.7578C129.461 16.4766 130.18 18.6797 131.719 20.5938L133.203 20.5938C132.078 19.2812 131.195 16.3203 131.195 13.75C131.195 11.1797 132.078 8.22656 133.203 6.91406L131.719 6.91406C130.18 8.82031 129.461 11.0234 129.461 13.7578ZM137.227 18.1875L138.938 18.1875L138.938 6.91406L137.211 6.91406L134.242 9.02344L134.242 10.7422L137.188 8.64844L137.227 8.64844L137.227 18.1875ZM147.047 18.1875L148.727 18.1875L148.727 15.9609L150.273 15.9609L150.273 14.4922L148.727 14.4922L148.727 6.91406L146.195 6.91406C143.656 10.5859 142.375 12.6094 141.406 14.4297L141.406 15.9609L147.047 15.9609L147.047 18.1875ZM143.039 14.4766C143.938 12.8438 145.078 11.0859 147.031 8.26562L147.062 8.26562L147.062 14.5156L143.039 14.5156L143.039 14.4766ZM154.789 13.7578C154.789 10.3281 153.68 8.32812 152.531 6.91406L151.047 6.91406C151.82 7.8125 153.055 10.375 153.055 13.75C153.055 17.125 151.828 19.6875 151.047 20.5938L152.531 20.5938C153.68 19.1719 154.789 17.1719 154.789 13.7578Z" fill="#0071E4" fill-opacity="1.000000" fill-rule="evenodd"/>
	<rect id="icon-park-outline:like" width="24.000000" height="24.000000" transform="translate(194.000000 0.000000)" fill="#FFFFFF" fill-opacity="0"/>
	<g clip-path="url(#clip9_14799)">
		<path id="Vector" d="M196 9.5C196 15 202.5 20 206 21.163C209.5 20 216 15 216 9.5C216 6.46252 213.538 4 210.5 4C208.64 4 206.995 4.92352 206 6.33698C205.493 5.61462 204.819 5.02502 204.036 4.61823C203.252 4.21143 202.383 3.99939 201.5 4C198.462 4 196 6.46252 196 9.5Z" stroke="#585656" stroke-opacity="1.000000" stroke-width="2.400000" stroke-linejoin="round"/>
	</g>
	<rect id="gg:filters" width="24.000000" height="24.000000" transform="translate(226.000000 0.000000)" fill="#FFFFFF" fill-opacity="0"/>
	<g clip-path="url(#clip9_14801)">
		<path id="Vector" d="M230.708 15.4401C231.879 16.2624 233.274 16.7044 234.705 16.7061C235.146 17.9066 235.907 18.9634 236.907 19.7617C237.906 20.5601 239.104 21.0694 240.373 21.2345C241.641 21.3995 242.93 21.214 244.101 20.698C245.271 20.182 246.277 19.3553 247.011 18.3076C247.744 17.2599 248.176 16.0313 248.261 14.7552C248.345 13.4791 248.079 12.2042 247.49 11.069C246.9 9.93378 246.012 8.98169 244.92 8.31598C243.828 7.65033 242.574 7.29651 241.295 7.29303C240.917 6.26184 240.3 5.33435 239.497 4.58545C238.693 3.83655 237.724 3.28735 236.668 2.9823C235.613 2.67719 234.501 2.62476 233.422 2.82922C232.342 3.03375 231.326 3.48938 230.456 4.15936C229.585 4.82928 228.884 5.69476 228.41 6.68573C227.936 7.6767 227.702 8.76538 227.727 9.86365C227.751 10.9619 228.034 12.039 228.552 13.0078C229.07 13.9765 229.809 14.8098 230.708 15.4401ZM231.855 13.8C232.574 14.3047 233.413 14.6104 234.287 14.686C234.197 13.1171 234.64 11.5638 235.543 10.278C236.442 8.98944 237.751 8.04254 239.256 7.59106C238.932 6.8963 238.452 6.28546 237.854 5.80579C237.256 5.32611 236.555 4.99042 235.807 4.82465C235.058 4.65894 234.281 4.66754 233.537 4.84991C232.792 5.03229 232.099 5.38348 231.512 5.8764C230.924 6.36926 230.458 6.99066 230.149 7.69244C229.84 8.39423 229.697 9.15765 229.73 9.92365C229.764 10.6897 229.973 11.4378 230.341 12.1101C230.71 12.7825 231.229 13.361 231.856 13.801L231.855 13.8ZM244.145 10.197C243.427 9.69275 242.588 9.38745 241.713 9.31207C241.804 10.881 241.361 12.4343 240.457 13.72C239.558 15.0087 238.25 15.9556 236.744 16.407C237.069 17.1018 237.548 17.7126 238.146 18.1923C238.745 18.672 239.445 19.0077 240.194 19.1734C240.942 19.3392 241.719 19.3305 242.464 19.1481C243.208 18.9658 243.901 18.6146 244.489 18.1217C245.076 17.6288 245.542 17.0074 245.851 16.3057C246.16 15.6039 246.303 14.8405 246.27 14.0744C246.237 13.3084 246.028 12.5603 245.659 11.888C245.291 11.2156 244.772 10.6371 244.144 10.197L244.145 10.197Z" fill="#585656" fill-opacity="1.000000" fill-rule="evenodd"/>
	</g>
</svg>
