<svg width="48.000000" height="48.000000" viewBox="0 0 48 48" fill="none" xmlns="http://www.w3.org/2000/svg" xmlns:xlink="http://www.w3.org/1999/xlink">
	<desc>
			Created with Pixso.
	</desc>
	<defs>
		<clipPath id="clip9_9664">
			<rect id="macbook_laptop_mac_apple_computer_icon_134097 3" width="48.000000" height="48.000000" fill="white" fill-opacity="0"/>
		</clipPath>
	</defs>
	<rect id="macbook_laptop_mac_apple_computer_icon_134097 3" width="48.000000" height="48.000000" fill="#FFFFFF" fill-opacity="0"/>
	<g clip-path="url(#clip9_9664)">
		<path id="Vector" d="M42.1201 34.8047L42.1201 11.7188C42.1201 10.9678 41.5117 10.3594 40.7607 10.3594L7.22168 10.3594C6.47119 10.3594 5.8623 10.9678 5.8623 11.7188L5.8623 34.8047L0.492188 34.8047L0.492188 36.3281C0.66748 36.532 1.54004 37.162 3.95312 37.1095L43.5156 37.0936C43.5156 37.0936 46.6035 37.1381 47.6719 36.3281L47.6719 34.8047L42.1201 34.8047ZM23.9912 11.3592C24.0981 11.3592 24.1846 11.4459 24.1846 11.5528C24.1846 11.6597 24.0981 11.7459 23.9912 11.7459C23.8843 11.7459 23.7979 11.6597 23.7979 11.5528C23.7979 11.4459 23.8843 11.3592 23.9912 11.3592ZM7.84277 12.4219L40.1396 12.4219L40.1396 32.7656L7.84277 32.7656L7.84277 12.4219ZM27.4688 35.0977C27.4688 35.3306 27.2798 35.5195 27.0469 35.5195L20.6719 35.5195C20.439 35.5195 20.25 35.3306 20.25 35.0977L20.25 34.8281L27.4688 34.8281L27.4688 35.0977ZM44.8535 35.6133L43.2246 35.6133C43.1953 35.6133 43.1719 35.5898 43.1719 35.5603C43.1719 35.5312 43.1953 35.5078 43.2246 35.5078L44.8535 35.5078C44.8828 35.5078 44.9062 35.5312 44.9062 35.5603C44.9062 35.5898 44.8828 35.6133 44.8535 35.6133Z" fill="#CCCCCC" fill-opacity="1.000000" fill-rule="nonzero"/>
	</g>
</svg>
