<svg width="48.000000" height="48.000000" viewBox="0 0 48 48" fill="none" xmlns="http://www.w3.org/2000/svg" xmlns:xlink="http://www.w3.org/1999/xlink">
	<desc>
			Created with Pixso.
	</desc>
	<defs>
		<clipPath id="clip9_9670">
			<rect id="applewatch_119991 3" width="48.000000" height="48.000000" fill="white" fill-opacity="0"/>
		</clipPath>
	</defs>
	<rect id="applewatch_119991 3" width="48.000000" height="48.000000" fill="#FFFFFF" fill-opacity="0"/>
	<g clip-path="url(#clip9_9670)">
		<path id="Vector" d="M17 14C15.3433 14 14 15.3431 14 17L14 31C14 32.6569 15.3433 34 17 34L31.0229 34C32.6797 34 34.0229 32.6569 34.0229 31L34.0229 17C34.0229 15.3431 32.6797 14 31.0229 14L17 14ZM32 35.9045L32 41C32 43.7614 29.7612 46 27 46L21 46C18.2388 46 16 43.7614 16 41L16 35.9C13.7178 35.4367 12 33.419 12 31L12 17C12 14.581 13.7178 12.5633 16 12.1L16 7C16 4.23858 18.2388 2 21 2L27 2C29.7612 2 32 4.23858 32 7L32 12.0955C34.2935 12.5499 36.0229 14.573 36.0229 17L36.0229 31C36.0229 33.427 34.2935 35.4501 32 35.9045ZM30 36L18 36L18 41C18 42.6569 19.3433 44 21 44L27 44C28.6567 44 30 42.6569 30 41L30 36ZM18 12L30 12L30 7C30 5.34315 28.6567 4 27 4L21 4C19.3433 4 18 5.34315 18 7L18 12Z" fill="#CCCCCC" fill-opacity="1.000000" fill-rule="nonzero"/>
	</g>
</svg>
